<svg preserveAspectRatio="none" width="100%" height="100%" overflow="visible" style="display: block;" viewBox="0 0 33.5 33.5" fill="none" xmlns="http://www.w3.org/2000/svg">
<path id="Union" d="M16.75 0C26.0006 1.24997e-05 33.5 7.49937 33.5 16.75C33.5 26.0006 26.0006 33.5 16.75 33.5C13.8327 33.5 11.0899 32.7545 8.70117 31.4434L0 33.5L2.23047 25.1064C0.811953 22.6471 4.11294e-06 19.7932 0 16.75C0 7.49936 7.49936 0 16.75 0ZM16.75 3C9.15637 3 3.00026 9.15546 3 16.749C3 19.6769 3.9156 22.3911 5.47559 24.6211L4.0332 29.5352L9.1748 28.2256C11.3472 29.6628 13.9505 30.499 16.75 30.499C24.3438 30.499 30.5 24.3428 30.5 16.749C30.4997 9.15547 24.3436 3.00001 16.75 3ZM12.1465 8.4834C12.3517 8.46666 12.5405 8.58635 12.6279 8.77246L14.5381 12.8252C14.6283 13.0169 14.5892 13.2447 14.4395 13.3945L13.0156 14.8184C12.7076 15.1264 12.6169 15.6067 12.8291 15.9873C13.3488 16.9191 14.0479 17.8168 14.8574 18.6426C15.6832 19.452 16.5809 20.1507 17.5127 20.6699C17.8932 20.8821 18.3722 20.7923 18.6807 20.4844L20.1055 19.0605C20.2553 18.9107 20.4831 18.8702 20.6748 18.9609L24.7275 20.8711C24.9135 20.9586 25.0324 21.1479 25.0156 21.3525C24.9719 21.8857 24.7577 22.9542 23.7998 23.9121C21.0956 26.6163 16.2397 23.5567 16.042 23.4385C14.8477 22.7969 13.7128 21.9389 12.6367 20.8633C11.5611 19.7877 10.7021 18.6522 10.0605 17.458C9.9419 17.2607 6.88226 12.4039 9.58691 9.69922C10.5448 8.74154 11.6133 8.52713 12.1465 8.4834Z" fill="#FBF8F1"/>
</svg>
