<svg preserveAspectRatio="none" width="100%" height="100%" overflow="visible" style="display: block;" viewBox="0 0 24.5 24.5" fill="none" xmlns="http://www.w3.org/2000/svg">
<path id="Vector" fill-rule="evenodd" clip-rule="evenodd" d="M24.5 12.25C24.5 19.0155 19.0155 24.5 12.25 24.5C5.48451 24.5 0 19.0155 0 12.25C0 5.48451 5.48451 0 12.25 0C19.0155 0 24.5 5.48451 24.5 12.25ZM12.689 9.04349C11.4975 9.53908 9.11619 10.5648 5.54506 12.1207C4.96516 12.3513 4.66139 12.5769 4.63374 12.7975C4.587 13.1703 5.05385 13.3171 5.68959 13.517C5.77606 13.5442 5.86566 13.5724 5.95752 13.6022C6.58299 13.8055 7.42435 14.0434 7.86174 14.0528C8.25849 14.0614 8.70131 13.8978 9.1902 13.5621C12.5268 11.3098 14.2492 10.1714 14.3573 10.1469C14.4336 10.1295 14.5393 10.1078 14.611 10.1714C14.6826 10.2351 14.6755 10.3557 14.668 10.388C14.6217 10.5852 12.7891 12.2889 11.8408 13.1706C11.5451 13.4454 11.3354 13.6404 11.2925 13.6849C11.1965 13.7847 11.0986 13.879 11.0046 13.9697C10.4235 14.5299 9.98775 14.9499 11.0287 15.6359C11.5289 15.9655 11.9292 16.2381 12.3286 16.5101C12.7647 16.8071 13.1997 17.1033 13.7625 17.4723C13.9059 17.5662 14.0428 17.6639 14.1762 17.759C14.6837 18.1208 15.1397 18.4459 15.7031 18.394C16.0304 18.3639 16.3685 18.0561 16.5402 17.1381C16.9461 14.9686 17.7438 10.268 17.9281 8.331C17.9443 8.16129 17.9239 7.9441 17.9076 7.84876C17.8913 7.75341 17.8572 7.61757 17.7333 7.51701C17.5865 7.39792 17.3599 7.3728 17.2586 7.37459C16.7978 7.38271 16.0909 7.6285 12.689 9.04349Z" fill="#431C26"/>
</svg>
