<svg preserveAspectRatio="none" width="100%" height="100%" overflow="visible" style="display: block;" viewBox="0 0 24.5 24.5" fill="none" xmlns="http://www.w3.org/2000/svg">
<g id="Max_logo_black 1" clip-path="url(#clip0_0_23)">
<path id="Vector" d="M11.9229 0.327301C4.82472 0.698204 0.139096 6.26515 0.435138 13.2851C0.564443 16.3578 1.79965 19.0018 2.09229 21.9179C2.16715 22.6734 1.94937 23.6057 2.82049 23.9358C3.89236 24.3407 5.5359 23.6602 6.43424 23.0374C6.74049 22.8299 7.03313 22.5883 7.25771 22.2888C8.18667 22.9047 9.06799 23.5002 10.1739 23.7656C15.0433 24.9328 20.3788 22.2616 22.7506 17.9707C27.2082 9.90953 21.1819 -0.155894 11.9229 0.327301ZM9.16667 17.1506C8.78216 17.4501 8.41125 17.8584 7.98591 18.0932C7.37 18.4233 7.17945 18.0796 6.94806 17.5352C6.21986 15.8031 6.13139 12.8529 6.55674 11.0392C7.1284 8.57223 9.03736 6.40126 11.6609 6.16987C14.3151 5.93508 16.7787 7.28258 17.8914 9.71557C20.355 15.1294 14.0497 20.4752 9.16667 17.154V17.1506Z" fill="#431C26"/>
</g>
<defs>
<clipPath id="clip0_0_23">
<rect width="24.5" height="24.5" fill="white"/>
</clipPath>
</defs>
</svg>
