<svg preserveAspectRatio="none" width="100%" height="100%" overflow="visible" style="display: block;" viewBox="0 0 33.5 33.5" fill="none" xmlns="http://www.w3.org/2000/svg">
<path id="Vector" fill-rule="evenodd" clip-rule="evenodd" d="M33.5 16.75C33.5 26.0007 26.0007 33.5 16.75 33.5C7.49922 33.5 0 26.0007 0 16.75C0 7.49922 7.49922 0 16.75 0C26.0007 0 33.5 7.49922 33.5 16.75ZM17.3502 12.3656C15.721 13.0432 12.465 14.4457 7.58201 16.5732C6.78909 16.8885 6.37373 17.1969 6.33591 17.4986C6.27201 18.0083 6.91036 18.209 7.77962 18.4824C7.89787 18.5196 8.02038 18.5581 8.14599 18.5989C9.00121 18.8769 10.1516 19.2021 10.7497 19.2151C11.2922 19.2268 11.8977 19.0031 12.5662 18.5441C17.1285 15.4644 19.4835 13.9078 19.6314 13.8742C19.7357 13.8506 19.8803 13.8208 19.9782 13.9078C20.0761 13.9949 20.0665 14.1598 20.0561 14.204C19.9929 14.4736 17.4871 16.8031 16.1904 18.0087C15.7862 18.3845 15.4994 18.6511 15.4408 18.712C15.3095 18.8484 15.1757 18.9774 15.047 19.1014C14.2525 19.8673 13.6567 20.4417 15.08 21.3797C15.764 21.8304 16.3114 22.2031 16.8574 22.575C17.4537 22.9811 18.0485 23.3861 18.8181 23.8906C19.0141 24.0191 19.2014 24.1526 19.3838 24.2826C20.0777 24.7774 20.7012 25.2219 21.4715 25.151C21.9191 25.1098 22.3814 24.6889 22.6162 23.4337C23.1711 20.4673 24.2618 14.0399 24.5139 11.3913C24.536 11.1593 24.5082 10.8623 24.4859 10.732C24.4636 10.6016 24.417 10.4158 24.2475 10.2783C24.0468 10.1155 23.737 10.0812 23.5984 10.0836C22.9684 10.0947 22.0019 10.4308 17.3502 12.3656Z" fill="#FBF8F1"/>
</svg>
