<svg preserveAspectRatio="none" width="100%" height="100%" overflow="visible" style="display: block;" viewBox="0 0 24.5 24.5" fill="none" xmlns="http://www.w3.org/2000/svg">
<path id="Union" d="M12.25 0C19.0154 0 24.5 5.4846 24.5 12.25C24.5 19.0154 19.0154 24.5 12.25 24.5C10.1167 24.5 8.11113 23.9548 6.36426 22.9961L0 24.5L1.63086 18.3613C0.593528 16.5627 0 14.4756 0 12.25C2.86711e-06 5.4846 5.4846 2.86702e-06 12.25 0ZM12.25 2.19336C6.69633 2.19336 2.19434 6.69633 2.19434 12.25C2.19441 14.3911 2.86311 16.376 4.00391 18.0068L2.9502 21.6006L6.70996 20.6426C8.19949 21.628 9.966 22.2278 11.8682 22.2988L12.25 22.3057C17.8036 22.3057 22.3055 17.8035 22.3057 12.25C22.3057 6.69632 17.8037 2.19336 12.25 2.19336ZM8.88281 6.20508C9.03288 6.19283 9.17138 6.2799 9.23535 6.41602L10.6328 9.37988C10.6985 9.5199 10.6698 9.68644 10.5605 9.7959L9.51855 10.8379C9.29346 11.0632 9.22769 11.4141 9.38281 11.6924C9.76288 12.3738 10.2743 13.0299 10.8662 13.6338C11.4701 14.2258 12.1261 14.7375 12.8076 15.1172C13.0859 15.2723 13.4365 15.2065 13.6621 14.9814L14.7041 13.9395C14.8137 13.8301 14.98 13.8009 15.1201 13.8672L18.084 15.2646C18.22 15.3286 18.3072 15.4665 18.2949 15.6162C18.2629 16.0062 18.1066 16.7878 17.4062 17.4883C15.4292 19.4653 11.8792 17.2294 11.7324 17.1416C10.8589 16.6724 10.0283 16.0445 9.24121 15.2578C8.45464 14.4712 7.8266 13.641 7.35742 12.7676C7.27053 12.6231 5.03304 9.07176 7.01074 7.09375C7.71107 6.39342 8.49268 6.23716 8.88281 6.20508Z" fill="#431C26"/>
</svg>
