<svg preserveAspectRatio="none" width="100%" height="100%" overflow="visible" style="display: block;" viewBox="0 0 33.5 33.5" fill="none" xmlns="http://www.w3.org/2000/svg">
<g id="svg" clip-path="url(#clip0_0_31)">
<path id="Vector" d="M16.304 0.446737C6.59833 0.953889 0.191469 8.56582 0.59626 18.1645C0.773065 22.3659 2.46202 25.9811 2.86216 29.9686C2.96452 31.0015 2.66674 32.2763 3.85785 32.7277C5.32348 33.2813 7.57076 32.3508 8.7991 31.4993C9.21785 31.2155 9.61798 30.8852 9.92507 30.4757C11.1953 31.3179 12.4003 32.1321 13.9125 32.495C20.5706 34.0909 27.8662 30.4385 31.1091 24.5714C37.2043 13.5489 28.9642 -0.213957 16.304 0.446737ZM12.5353 23.45C12.0095 23.8595 11.5024 24.4178 10.9208 24.7389C10.0786 25.1902 9.81805 24.7202 9.50166 23.9758C8.50597 21.6075 8.385 17.5736 8.9666 15.0937C9.74826 11.7204 12.3585 8.75193 15.9458 8.43554C19.5749 8.1145 22.9435 9.957 24.465 13.2837C27.8336 20.6863 19.212 27.9958 12.5353 23.4547V23.45Z" fill="#FBF8F1"/>
</g>
<defs>
<clipPath id="clip0_0_31">
<rect width="33.5" height="33.5" fill="white"/>
</clipPath>
</defs>
</svg>
