<svg preserveAspectRatio="none" width="100%" height="100%" overflow="visible" style="display: block;" viewBox="0 0 49.9463 60.9367" fill="none" xmlns="http://www.w3.org/2000/svg">
<g id="svg">
<path id="Vector" d="M0 60.4011H1.3377C1.3377 60.4011 3.98715 60.5203 4.53611 59.273C4.53611 59.273 4.85932 58.8061 5.20216 57.3219L21.3548 0H27.7881L44.2891 57.5771C44.2891 57.5771 44.578 59.1272 45.4712 59.7575C45.4712 59.7575 46.2137 60.2279 47.0417 60.3261C47.0417 60.3261 48.27 60.4677 49.9463 60.4004V60.9367H25.6434V60.4004H27.589C27.589 60.4004 29.0683 60.3815 29.4714 60.3492C29.4714 60.3492 31.037 60.2125 31.4015 60.0085C31.4015 60.0085 32.62 59.7301 32.5086 58.0559C32.5086 58.0559 32.4223 57.3156 31.8292 55.2669L31.1106 52.5937L20.0774 9.17388L6.58402 57.5035C6.58402 57.5035 6.19141 58.7093 6.25941 59.2555C6.25941 59.2555 6.27975 60.0183 6.99276 60.1999C6.99276 60.1999 7.55435 60.4172 8.93341 60.4109L13.8488 60.4004V60.9367H0V60.4004V60.4011Z" fill="#F5F1E8"/>
<path id="Vector_2" d="M18.2246 40.1655L19.1129 43.244L20.0741 40.1809L25.2903 39.238L20.1091 38.6855L19.211 35.6406L18.2589 38.6708L13 39.3417L18.2246 40.1655Z" fill="#F5F1E8"/>
</g>
</svg>
